<svg xmlns="http://www.w3.org/2000/svg" width="1864" height="712" viewBox="0 0 1864 712">
  <metadata><?xpacket begin="﻿" id="W5M0MpCehiHzreSzNTczkc9d"?>
<x:xmpmeta xmlns:x="adobe:ns:meta/" x:xmptk="Adobe XMP Core 5.6-c142 79.160924, 2017/07/13-01:06:39        ">
   <rdf:RDF xmlns:rdf="http://www.w3.org/1999/02/22-rdf-syntax-ns#">
      <rdf:Description rdf:about=""/>
   </rdf:RDF>
</x:xmpmeta>
                                                                                                    
                                                                                                    
                                                                                                    
                                                                                                    
                                                                                                    
                                                                                                    
                                                                                                    
                                                                                                    
                                                                                                    
                                                                                                    
                                                                                                    
                                                                                                    
                                                                                                    
                                                                                                    
                                                                                                    
                                                                                                    
                                                                                                    
                                                                                                    
                                                                                                    
                                                                                                    
                           
<?xpacket end="w"?></metadata>
<defs>
    <style>
      .cls-1, .cls-2 {
        font-size: 92.713px;
        text-anchor: middle;
        font-family: "Keep Calm";
      }

      .cls-1 {
        fill: #15ff5d;
      }

      .cls-3 {
        fill-rule: evenodd;
      }
    </style>
  </defs>
  <text id="Gabriel" class="cls-1" transform="matrix(3.206, -0.227, 0, 3.239, 815.157, 360.004)"><tspan x="0">Gabriel</tspan></text>
  <text id="Roque" class="cls-2" transform="matrix(2.937, -0.208, 0, 2.967, 1318.489, 541.865)"><tspan x="0">Roque</tspan></text>
  <path id="Retângulo_Arredondado_1" data-name="Retângulo Arredondado 1" class="cls-3" d="M446.725,500.5l379.561-17.032a9.639,9.639,0,0,1,10.057,9.207l0.165,3.712a9.646,9.646,0,0,1-9.2,10.07L447.749,523.492a9.639,9.639,0,0,1-10.056-9.207l-0.166-3.712A9.646,9.646,0,0,1,446.725,500.5Z"/>
  <path id="Retângulo_Arredondado_1_copiar" data-name="Retângulo Arredondado 1 copiar" class="cls-3" d="M345.431,556.264l379.484-17.028a9.677,9.677,0,0,1,10.1,9.243l0.162,3.636a9.685,9.685,0,0,1-9.235,10.11L346.455,579.253a9.677,9.677,0,0,1-10.1-9.243l-0.162-3.635A9.686,9.686,0,0,1,345.431,556.264Z"/>
  <path id="Retângulo_Arredondado_1_copiar_2" data-name="Retângulo Arredondado 1 copiar 2" class="cls-3" d="M237.391,458.679l379.362-17.022a9.676,9.676,0,0,1,10.1,9.243l0.162,3.635a9.686,9.686,0,0,1-9.235,10.111L238.415,481.668a9.677,9.677,0,0,1-10.1-9.243l-0.162-3.635A9.686,9.686,0,0,1,237.391,458.679Z"/>
  <path id="Retângulo_Arredondado_1_copiar_3" data-name="Retângulo Arredondado 1 copiar 3" class="cls-3" d="M105.226,464.61l71.219-3.2a9.677,9.677,0,0,1,10.1,9.243l0.162,3.636a9.685,9.685,0,0,1-9.235,10.11l-71.22,3.2a9.677,9.677,0,0,1-10.1-9.243l-0.162-3.636A9.684,9.684,0,0,1,105.226,464.61Z"/>
  <path id="Retângulo_Arredondado_1_copiar_4" data-name="Retângulo Arredondado 1 copiar 4" class="cls-3" d="M105.226,464.61l71.219-3.2a9.677,9.677,0,0,1,10.1,9.243l0.162,3.636a9.685,9.685,0,0,1-9.235,10.11l-71.22,3.2a9.677,9.677,0,0,1-10.1-9.243l-0.162-3.636A9.684,9.684,0,0,1,105.226,464.61Z"/>
</svg>
